<svg width="40" height="40" viewBox="0 0 40 40" fill="none" xmlns="http://www.w3.org/2000/svg">
<path d="M36.6173 30.55C36.6173 31.15 36.484 31.7666 36.2007 32.3666C35.9173 32.9666 35.5507 33.5333 35.0673 34.0666C34.2507 34.9666 33.3507 35.6166 32.334 36.0333C31.334 36.45 30.2507 36.6666 29.084 36.6666C27.384 36.6666 25.5673 36.2666 23.6507 35.45C21.734 34.6333 19.8173 33.5333 17.9173 32.15C16.0007 30.75 14.184 29.2 12.4507 27.4833C10.734 25.75 9.18398 23.9333 7.80065 22.0333C6.43398 20.1333 5.33398 18.2333 4.53398 16.35C3.73398 14.45 3.33398 12.6333 3.33398 10.9C3.33398 9.76665 3.53398 8.68331 3.93398 7.68331C4.33398 6.66665 4.96732 5.73331 5.85065 4.89998C6.91732 3.84998 8.08398 3.33331 9.31732 3.33331C9.78398 3.33331 10.2507 3.43331 10.6673 3.63331C11.1007 3.83331 11.484 4.13331 11.784 4.56665L15.6507 10.0166C15.9507 10.4333 16.1673 10.8166 16.3173 11.1833C16.4673 11.5333 16.5507 11.8833 16.5507 12.2C16.5507 12.6 16.434 13 16.2007 13.3833C15.984 13.7666 15.6673 14.1666 15.2673 14.5666L14.0007 15.8833C13.8173 16.0666 13.734 16.2833 13.734 16.55C13.734 16.6833 13.7507 16.8 13.784 16.9333C13.834 17.0666 13.884 17.1666 13.9173 17.2666C14.2173 17.8166 14.734 18.5333 15.4673 19.4C16.2173 20.2666 17.0173 21.15 17.884 22.0333C18.784 22.9166 19.6507 23.7333 20.534 24.4833C21.4007 25.2166 22.1173 25.7166 22.684 26.0166C22.7673 26.05 22.8673 26.1 22.984 26.15C23.1173 26.2 23.2507 26.2166 23.4007 26.2166C23.684 26.2166 23.9007 26.1166 24.084 25.9333L25.3507 24.6833C25.7673 24.2666 26.1673 23.95 26.5507 23.75C26.934 23.5166 27.3173 23.4 27.734 23.4C28.0507 23.4 28.384 23.4666 28.7507 23.6166C29.1173 23.7666 29.5007 23.9833 29.9173 24.2666L35.434 28.1833C35.8673 28.4833 36.1673 28.8333 36.3507 29.25C36.5173 29.6666 36.6173 30.0833 36.6173 30.55Z" stroke="#333333" stroke-width="2" stroke-miterlimit="10"/>
</svg>
