<svg width="40" height="40" viewBox="0 0 40 40" fill="none" xmlns="http://www.w3.org/2000/svg">
<path d="M30.0008 11.9333C29.9008 11.9167 29.7841 11.9167 29.6841 11.9333C27.3841 11.85 25.5508 9.96665 25.5508 7.63332C25.5508 5.24998 27.4674 3.33331 29.8508 3.33331C32.2341 3.33331 34.1508 5.26665 34.1508 7.63332C34.1341 9.96665 32.3008 11.85 30.0008 11.9333Z" stroke="#333333" stroke-width="2" stroke-linecap="round" stroke-linejoin="round"/>
<path d="M28.2844 24.0667C30.5677 24.45 33.0844 24.05 34.851 22.8667C37.201 21.3 37.201 18.7333 34.851 17.1667C33.0677 15.9833 30.5177 15.5833 28.2344 15.9833" stroke="#333333" stroke-width="2" stroke-linecap="round" stroke-linejoin="round"/>
<path d="M9.95078 11.9333C10.0508 11.9167 10.1674 11.9167 10.2674 11.9333C12.5674 11.85 14.4008 9.96665 14.4008 7.63332C14.4008 5.24998 12.4841 3.33331 10.1008 3.33331C7.71745 3.33331 5.80078 5.26665 5.80078 7.63332C5.81745 9.96665 7.65078 11.85 9.95078 11.9333Z" stroke="#333333" stroke-width="2" stroke-linecap="round" stroke-linejoin="round"/>
<path d="M11.6671 24.0667C9.38372 24.45 6.86706 24.05 5.10039 22.8667C2.75039 21.3 2.75039 18.7333 5.10039 17.1667C6.88372 15.9833 9.43372 15.5833 11.7171 15.9833" stroke="#333333" stroke-width="2" stroke-linecap="round" stroke-linejoin="round"/>
<path d="M19.9988 24.3833C19.8988 24.3667 19.7822 24.3667 19.6822 24.3833C17.3822 24.3 15.5488 22.4167 15.5488 20.0833C15.5488 17.7 17.4655 15.7833 19.8488 15.7833C22.2322 15.7833 24.1488 17.7167 24.1488 20.0833C24.1322 22.4167 22.2988 24.3167 19.9988 24.3833Z" stroke="#333333" stroke-width="2" stroke-linecap="round" stroke-linejoin="round"/>
<path d="M15.1492 29.6333C12.7992 31.2 12.7992 33.7667 15.1492 35.3333C17.8159 37.1167 22.1826 37.1167 24.8492 35.3333C27.1992 33.7667 27.1992 31.2 24.8492 29.6333C22.1992 27.8667 17.8159 27.8667 15.1492 29.6333Z" stroke="#333333" stroke-width="2" stroke-linecap="round" stroke-linejoin="round"/>
</svg>
