<svg width="40" height="40" viewBox="0 0 40 40" fill="none" xmlns="http://www.w3.org/2000/svg">
<path d="M3.33398 36.6667H36.6673" stroke="#333333" stroke-width="2" stroke-miterlimit="10" stroke-linecap="round" stroke-linejoin="round"/>
<path d="M4.91602 36.6667L4.99935 16.6167C4.99935 15.6 5.48268 14.6334 6.28268 14.0001L17.9493 4.91674C19.1493 3.9834 20.8327 3.9834 22.0493 4.91674L33.716 13.9834C34.5327 14.6167 34.9993 15.5833 34.9993 16.6167V36.6667" stroke="#333333" stroke-width="2" stroke-miterlimit="10" stroke-linejoin="round"/>
<path d="M21.6673 28.3333H18.334C16.9507 28.3333 15.834 29.45 15.834 30.8333V36.6666H24.1673V30.8333C24.1673 29.45 23.0507 28.3333 21.6673 28.3333Z" stroke="#333333" stroke-width="2" stroke-miterlimit="10" stroke-linejoin="round"/>
<path d="M15.834 22.9166H12.5007C11.584 22.9166 10.834 22.1666 10.834 21.25V18.75C10.834 17.8333 11.584 17.0833 12.5007 17.0833H15.834C16.7507 17.0833 17.5007 17.8333 17.5007 18.75V21.25C17.5007 22.1666 16.7507 22.9166 15.834 22.9166Z" stroke="#333333" stroke-width="2" stroke-miterlimit="10" stroke-linejoin="round"/>
<path d="M27.5 22.9166H24.1667C23.25 22.9166 22.5 22.1666 22.5 21.25V18.75C22.5 17.8333 23.25 17.0833 24.1667 17.0833H27.5C28.4167 17.0833 29.1667 17.8333 29.1667 18.75V21.25C29.1667 22.1666 28.4167 22.9166 27.5 22.9166Z" stroke="#333333" stroke-width="2" stroke-miterlimit="10" stroke-linejoin="round"/>
<path d="M31.6665 11.6667L31.6165 6.66669H24.2832" stroke="#333333" stroke-width="2" stroke-miterlimit="10" stroke-linecap="round" stroke-linejoin="round"/>
</svg>
