<svg width="40" height="40" viewBox="0 0 40 40" fill="none" xmlns="http://www.w3.org/2000/svg">
<path d="M8.33398 25V13.3333" stroke="#333333" stroke-width="2" stroke-linecap="round" stroke-linejoin="round"/>
<path d="M8.75065 36.6666C11.7422 36.6666 14.1673 34.2415 14.1673 31.25C14.1673 28.2584 11.7422 25.8333 8.75065 25.8333C5.75911 25.8333 3.33398 28.2584 3.33398 31.25C3.33398 34.2415 5.75911 36.6666 8.75065 36.6666Z" stroke="#333333" stroke-width="2" stroke-linecap="round" stroke-linejoin="round"/>
<path d="M8.33398 13.3333C11.0954 13.3333 13.334 11.0947 13.334 8.33331C13.334 5.57189 11.0954 3.33331 8.33398 3.33331C5.57256 3.33331 3.33398 5.57189 3.33398 8.33331C3.33398 11.0947 5.57256 13.3333 8.33398 13.3333Z" stroke="#333333" stroke-width="2" stroke-linecap="round" stroke-linejoin="round"/>
<path d="M31.666 13.3333C34.4274 13.3333 36.666 11.0947 36.666 8.33331C36.666 5.57189 34.4274 3.33331 31.666 3.33331C28.9046 3.33331 26.666 5.57189 26.666 8.33331C26.666 11.0947 28.9046 13.3333 31.666 13.3333Z" stroke="#333333" stroke-width="2" stroke-linecap="round" stroke-linejoin="round"/>
<path d="M8.55078 25C9.30078 22.0833 11.9674 19.9167 15.1174 19.9333L20.8341 19.95C25.2008 19.9667 28.9174 17.1667 30.2841 13.2667" stroke="#333333" stroke-width="2" stroke-linecap="round" stroke-linejoin="round"/>
</svg>
