<svg width="40" height="40" viewBox="0 0 40 40" fill="none" xmlns="http://www.w3.org/2000/svg">
<path d="M30.2342 36.0333C28.7676 36.4666 27.0342 36.6666 25.0009 36.6666H15.0009C12.9676 36.6666 11.2342 36.4666 9.76758 36.0333C10.1342 31.7 14.5842 28.2833 20.0009 28.2833C25.4176 28.2833 29.8676 31.7 30.2342 36.0333Z" stroke="#333333" stroke-width="2" stroke-linecap="round" stroke-linejoin="round"/>
<path d="M25.0007 3.33331H15.0007C6.66732 3.33331 3.33398 6.66665 3.33398 15V25C3.33398 31.3 5.23399 34.75 9.76732 36.0333C10.134 31.7 14.584 28.2833 20.0007 28.2833C25.4173 28.2833 29.8673 31.7 30.234 36.0333C34.7673 34.75 36.6673 31.3 36.6673 25V15C36.6673 6.66665 33.334 3.33331 25.0007 3.33331ZM20.0007 23.6166C16.7007 23.6166 14.034 20.9333 14.034 17.6333C14.034 14.3333 16.7007 11.6666 20.0007 11.6666C23.3007 11.6666 25.9673 14.3333 25.9673 17.6333C25.9673 20.9333 23.3007 23.6166 20.0007 23.6166Z" stroke="#333333" stroke-width="2" stroke-linecap="round" stroke-linejoin="round"/>
<path d="M25.9665 17.6334C25.9665 20.9334 23.2999 23.6167 19.9999 23.6167C16.6999 23.6167 14.0332 20.9334 14.0332 17.6334C14.0332 14.3334 16.6999 11.6667 19.9999 11.6667C23.2999 11.6667 25.9665 14.3334 25.9665 17.6334Z" stroke="#333333" stroke-width="2" stroke-linecap="round" stroke-linejoin="round"/>
</svg>
